<svg xmlns="http://www.w3.org/2000/svg" viewBox="0 0 128 128">
  <rect width="128" height="128" fill="none" />
  <ellipse cx="66" cy="68" rx="36" ry="27" fill="#fff9ea" stroke="#3a2e2b" stroke-width="4" />
  <ellipse cx="38" cy="64" rx="12" ry="10" fill="#3a2e2b" />
  <ellipse cx="75" cy="78" rx="16" ry="13" fill="#3a2e2b" />
  <ellipse cx="53" cy="45" rx="16" ry="13" fill="#fff9ea" stroke="#3a2e2b" stroke-width="4" />
  <circle cx="40" cy="44" r="5" fill="#f1b5c0" stroke="#3a2e2b" stroke-width="4" />
  <circle cx="66" cy="44" r="5" fill="#f1b5c0" stroke="#3a2e2b" stroke-width="4" />
  <ellipse cx="53" cy="54" rx="14" ry="10" fill="#f3c5d0" stroke="#3a2e2b" stroke-width="4" />
  <circle cx="48" cy="54" r="2.5" fill="#3a2e2b" />
  <circle cx="58" cy="54" r="2.5" fill="#3a2e2b" />
  <circle cx="48" cy="41" r="2.5" fill="#3a2e2b" />
  <circle cx="58" cy="41" r="2.5" fill="#3a2e2b" />
  <rect x="38" y="88" width="8" height="18" rx="3" fill="#fff9ea" stroke="#3a2e2b" stroke-width="4" />
  <rect x="58" y="90" width="8" height="16" rx="3" fill="#fff9ea" stroke="#3a2e2b" stroke-width="4" />
  <rect x="78" y="88" width="8" height="18" rx="3" fill="#fff9ea" stroke="#3a2e2b" stroke-width="4" />
  <path d="M96 66c9 4 11 12 8 18" fill="none" stroke="#3a2e2b" stroke-width="4" stroke-linecap="round" />
</svg>
